<?xml version="1.0" encoding="UTF-8"?>
<svg version="1.1" xmlns="http://www.w3.org/2000/svg" width="719" height="778">
<path d="M0 0 C237.27 0 474.54 0 719 0 C719 256.74 719 513.48 719 778 C481.73 778 244.46 778 0 778 C0 521.26 0 264.52 0 0 Z " fill="#000000" transform="translate(0,0)"/>
<path d="M0 0 C1.04414063 0.41765625 2.08828125 0.8353125 3.1640625 1.265625 C5.44270833 2.17708333 7.72135417 3.08854167 10 4 C10 4.66 10 5.32 10 6 C12.64 6.66 15.28 7.32 18 8 C18 8.66 18 9.32 18 10 C18.73863281 10.27585937 19.47726562 10.55171875 20.23828125 10.8359375 C28.3659997 14.26176508 35.27278788 20.41576082 42 26 C42.71414063 26.58910156 43.42828125 27.17820312 44.1640625 27.78515625 C48.3146368 31.30272791 51.95270591 35.04121842 55.45703125 39.203125 C56.94338931 40.99804708 56.94338931 40.99804708 58.546875 42.45703125 C60.28219417 44.29964166 61.28122321 46.18939464 62.4375 48.4375 C63.86602469 51.1015055 64.97475402 52.97475402 67.125 55.125 C69.23807239 57.23807239 70.14564262 59.35279726 71.234375 62.109375 C72.26494143 64.65424312 73.5347423 67.07114044 74.765625 69.5234375 C75.17296875 70.34070313 75.5803125 71.15796875 76 72 C76.55171875 73.10601562 77.1034375 74.21203125 77.671875 75.3515625 C92.68639221 106.04925964 93.30264367 143.46544663 82.47265625 175.6171875 C80.11023038 182.31761317 77.26677279 188.69174909 74 195 C72.92949053 197.64640968 71.96047123 200.31068056 71 203 C70.34 203 69.68 203 69 203 C68.64228516 204.04994141 68.64228516 204.04994141 68.27734375 205.12109375 C64.53307193 213.56001832 57.17189457 220.99656375 51 227.8125 C50.53150635 228.33400635 50.0630127 228.8555127 49.58032227 229.39282227 C48.4303832 230.63688371 47.21995739 231.82452022 46 233 C45.34 233 44.68 233 44 233 C43.78601563 233.56976562 43.57203125 234.13953125 43.3515625 234.7265625 C41.53182909 237.78750135 39.25652163 239.29592744 36.375 241.375 C32.934175 243.86619388 29.53820706 246.37147852 26.25 249.0625 C20.10591456 253.67056408 12.92596529 256.7584669 6 260 C4.96359375 260.48855469 3.9271875 260.97710938 2.859375 261.48046875 C-4.48539313 264.74146553 -11.9409388 266.70098553 -19.75878906 268.4597168 C-21.40611671 268.85683402 -23.04249773 269.30007544 -24.67089844 269.76879883 C-32.61074723 271.98728599 -40.02598788 272.50344221 -48.25 272.4375 C-50.2005127 272.42940308 -50.2005127 272.42940308 -52.19042969 272.42114258 C-69.32674649 272.15633143 -87.86246365 270.10909586 -103.5 262.5625 C-107.02422944 260.89731402 -110.54198366 259.37893191 -114.1875 258 C-118.73347917 256.2107026 -123.20111865 254.11975172 -127 251 C-127 250.34 -127 249.68 -127 249 C-128.06541016 248.88591797 -128.06541016 248.88591797 -129.15234375 248.76953125 C-132.76066781 247.79444231 -134.72257938 246.10084005 -137.5625 243.6875 C-138.95662109 242.51767578 -138.95662109 242.51767578 -140.37890625 241.32421875 C-142.68317597 239.28093934 -144.93182613 237.28229069 -147 235 C-147 234.34 -147 233.68 -147 233 C-147.804375 232.6596875 -147.804375 232.6596875 -148.625 232.3125 C-153.29254198 229.73306891 -156.80050744 226.87030494 -159 222 C-159.58394531 221.43152344 -160.16789062 220.86304688 -160.76953125 220.27734375 C-163.38144772 217.61053587 -165.46463167 214.69574151 -167.5625 211.625 C-167.94857422 211.07328125 -168.33464844 210.5215625 -168.73242188 209.953125 C-175 200.85606101 -175 200.85606101 -175 197 C-175.66 197 -176.32 197 -177 197 C-177.23074219 196.41734375 -177.46148437 195.8346875 -177.69921875 195.234375 C-181.91609891 183.99600657 -181.91609891 183.99600657 -187.00488281 173.16064453 C-196.5798011 152.37113843 -195.23872852 114.0818978 -188.1875 92.5 C-187.47264394 90.66103944 -186.74287211 88.82782279 -186 87 C-185.16215972 84.58489216 -184.32900839 82.1681537 -183.5 79.75 C-181.65800976 74.60611393 -179.59457479 69.80476813 -177 65 C-176.34 65 -175.68 65 -175 65 C-174.5978125 63.6696875 -174.5978125 63.6696875 -174.1875 62.3125 C-172.70522104 58.17772186 -171.1038787 55.07042783 -167.9375 52 C-165.84973059 50.1030642 -165.84973059 50.1030642 -165 47.4375 C-163.80652395 44.52840213 -162.50251862 43.82001354 -160 42 C-159.5771875 41.26394531 -159.154375 40.52789062 -158.71875 39.76953125 C-156.67786317 36.48092042 -154.1777713 33.88456071 -151.4375 31.1875 C-150.6959668 30.43436523 -150.6959668 30.43436523 -149.93945312 29.66601562 C-146.25348639 26 -146.25348639 26 -144 26 C-144 25.34 -144 24.68 -144 24 C-140.53846154 21 -140.53846154 21 -138 21 C-138 20.34 -138 19.68 -138 19 C-132.6338674 14.52128985 -121.159774 6 -114 6 C-114 5.34 -114 4.68 -114 4 C-100.77587119 -1.28203241 -88.14241211 -6.03236005 -74 -8 C-72.86751831 -8.25257568 -72.86751831 -8.25257568 -71.7121582 -8.51025391 C-48.9459556 -12.62124521 -20.97699891 -9.10887116 0 0 Z " fill="#FDFDFD" transform="translate(410,285)"/>
<path d="M0 0 C2.20226325 0.01859182 4.40411065 0.02050643 6.60644531 0.02026367 C17.71829918 0.0586732 17.71829918 0.0586732 23.04394531 1.20581055 C24.88653301 1.37786396 26.73215219 1.51926639 28.57910156 1.63549805 C29.63677734 1.70897461 30.69445312 1.78245117 31.78417969 1.8581543 C33.97128881 2.00473304 36.15879561 2.14551201 38.34667969 2.2800293 C49.59541756 3.08205411 59.86315175 5.9817606 70.48144531 9.64331055 C76.3526985 11.64143563 82.21664396 13.58850011 88.16894531 15.33081055 C94.05194738 17.09955627 99.53116999 19.51018494 105.04394531 22.20581055 C105.04394531 22.86581055 105.04394531 23.52581055 105.04394531 24.20581055 C105.86121094 24.45073242 106.67847656 24.6956543 107.52050781 24.94799805 C111.67555855 26.43128667 115.4971582 28.32382004 119.41894531 30.33081055 C120.155 30.70334961 120.89105469 31.07588867 121.64941406 31.4597168 C123.44944889 32.37142275 125.24695933 33.28810987 127.04394531 34.20581055 C127.04394531 34.86581055 127.04394531 35.52581055 127.04394531 36.20581055 C127.635625 36.36436523 128.22730469 36.52291992 128.83691406 36.6862793 C129.62710937 36.91959961 130.41730469 37.15291992 131.23144531 37.39331055 C132.00875 37.61374023 132.78605469 37.83416992 133.58691406 38.0612793 C136.78179699 39.5495157 138.60162834 41.67236234 141.04394531 44.20581055 C143.22012374 46.02508059 145.47670235 47.73540356 147.73144531 49.45581055 C155.6360026 55.57620524 162.98421183 62.12561407 170.04394531 69.20581055 C171.25240981 70.38149449 172.46214009 71.55587817 173.67285156 72.72924805 C174.98418659 74.01296217 176.29538179 75.29681914 177.60644531 76.58081055 C178.59547852 77.53213867 178.59547852 77.53213867 179.60449219 78.50268555 C183.64282849 82.48014241 186.39015855 86.20610092 189.04394531 91.20581055 C189.82769531 91.98956055 190.61144531 92.77331055 191.41894531 93.58081055 C197.44642577 99.60829101 202.0472102 107.70838901 206.04394531 115.20581055 C206.04394531 115.86581055 206.04394531 116.52581055 206.04394531 117.20581055 C206.70394531 117.20581055 207.36394531 117.20581055 208.04394531 117.20581055 C209.46179553 119.87185368 210.87825023 122.53862327 212.29394531 125.20581055 C212.88755859 126.32149414 212.88755859 126.32149414 213.49316406 127.4597168 C217.23461548 134.51327275 220.88807873 141.45644131 223.66894531 148.95581055 C225.23984547 153.23699314 225.23984547 153.23699314 227.19238281 157.34643555 C228.04394531 159.20581055 228.04394531 159.20581055 228.04394531 163.20581055 C80.20394531 163.20581055 -67.63605469 163.20581055 -219.95605469 163.20581055 C-219.95605469 157.97958478 -219.26735498 156.6572037 -216.95605469 152.20581055 C-216.54211328 150.91983258 -216.14814778 149.6273428 -215.76855469 148.33081055 C-214.06115626 142.9724857 -211.49543928 138.09165775 -208.94091797 133.10009766 C-206.72433739 128.7679699 -204.66209821 124.42227959 -202.84277344 119.9050293 C-201.95605469 118.20581055 -201.95605469 118.20581055 -200.5168457 116.83056641 C-198.87270884 115.11904899 -198.07314534 113.66100851 -197.09667969 111.51049805 C-195.00323097 107.16271887 -192.4701097 103.27793732 -189.70605469 99.33081055 C-188.98687866 98.29633789 -188.98687866 98.29633789 -188.25317383 97.2409668 C-179.87924985 85.29615938 -179.87924985 85.29615938 -175.95605469 81.20581055 C-175.29605469 81.20581055 -174.63605469 81.20581055 -173.95605469 81.20581055 C-173.69179687 80.61703125 -173.42753906 80.02825195 -173.15527344 79.42163086 C-171.91236525 77.1250847 -170.60598988 75.59747889 -168.76855469 73.75268555 C-168.15238281 73.13393555 -167.53621094 72.51518555 -166.90136719 71.87768555 C-166.25941406 71.2434668 -165.61746094 70.60924805 -164.95605469 69.95581055 C-163.993125 68.9812793 -163.993125 68.9812793 -163.01074219 67.98706055 C-162.39457031 67.3734668 -161.77839844 66.75987305 -161.14355469 66.12768555 C-160.58023438 65.56662109 -160.01691406 65.00555664 -159.43652344 64.42749023 C-157.95605469 63.20581055 -157.95605469 63.20581055 -155.95605469 63.20581055 C-155.95605469 62.54581055 -155.95605469 61.88581055 -155.95605469 61.20581055 C-154.08105469 59.08081055 -154.08105469 59.08081055 -151.95605469 57.20581055 C-151.29605469 57.20581055 -150.63605469 57.20581055 -149.95605469 57.20581055 C-149.95605469 56.54581055 -149.95605469 55.88581055 -149.95605469 55.20581055 C-147.90473158 53.60055918 -145.85230381 52.11220723 -143.70605469 50.64331055 C-142.4159794 49.74502373 -141.12693461 48.84525536 -139.83886719 47.9440918 C-139.18692383 47.48856934 -138.53498047 47.03304687 -137.86328125 46.5637207 C-135.04549637 44.55750981 -132.3202945 42.44303767 -129.58105469 40.33081055 C-125.19795642 37.00388054 -120.91744701 34.54608995 -115.95605469 32.20581055 C-115.62605469 31.54581055 -115.29605469 30.88581055 -114.95605469 30.20581055 C-112.5131978 28.91733472 -110.08892848 27.72753351 -107.58105469 26.58081055 C-106.89527344 26.2559668 -106.20949219 25.93112305 -105.50292969 25.59643555 C-102.49430502 24.20333696 -100.309899 23.20581055 -96.95605469 23.20581055 C-96.95605469 22.54581055 -96.95605469 21.88581055 -96.95605469 21.20581055 C-94.97605469 20.87581055 -92.99605469 20.54581055 -90.95605469 20.20581055 C-90.95605469 19.54581055 -90.95605469 18.88581055 -90.95605469 18.20581055 C-50.86070583 5.50732415 -50.86070583 5.50732415 -29.95605469 2.20581055 C-28.8890332 2.03299561 -27.82201172 1.86018066 -26.72265625 1.68212891 C-17.75280369 0.34471701 -9.05366807 -0.07911172 0 0 Z " fill="#FEFEFE" transform="translate(347.9560546875,614.794189453125)"/>
<path d="M0 0 C-1.22074219 0.25394531 -2.44148438 0.50789062 -3.69921875 0.76953125 C-8.80205747 1.83429067 -13.90162582 2.91408322 -19 4 C-20.23234375 4.26167969 -21.4646875 4.52335938 -22.734375 4.79296875 C-29.21638278 6.22375339 -35.39974749 8.04811961 -41.63671875 10.328125 C-44 11 -44 11 -46 10 C-43.51231339 6.26847008 -42.26811076 6.28205881 -38 5.3125 C-36.9275 5.06113281 -35.855 4.80976562 -34.75 4.55078125 C-32 4 -32 4 -30 4 C-29.67 3.34 -29.34 2.68 -29 2 C-29 2.66 -29 3.32 -29 4 C-27.78183594 3.72285156 -26.56367188 3.44570313 -25.30859375 3.16015625 C-23.68492812 2.79412758 -22.06122838 2.4282502 -20.4375 2.0625 C-19.63763672 1.88009766 -18.83777344 1.69769531 -18.01367188 1.50976562 C-4.94381325 -1.42428427 -4.94381325 -1.42428427 0 0 Z " fill="#686868" transform="translate(318,618)"/>
<path d="M0 0 C16.8929385 1.92710706 16.8929385 1.92710706 24 4 C24 4.33 24 4.66 24 5 C18.22576506 5.23568306 13.55026041 4.81644886 8 3 C6.52367497 2.61396448 5.04441696 2.2389796 3.5625 1.875 C2.386875 1.58625 1.21125 1.2975 0 1 C0 0.67 0 0.34 0 0 Z " fill="#A5A5A5" transform="translate(384,617)"/>
<path d="M0 0 C0.66 0.33 1.32 0.66 2 1 C0.38405168 3.04119788 -1.2856382 5.04072937 -3 7 C-3.66 7 -4.32 7 -5 7 C-5.2475 7.598125 -5.495 8.19625 -5.75 8.8125 C-7.16370012 11.28647521 -8.65055383 12.43370255 -11 14 C-11.66 13.67 -12.32 13.34 -13 13 C-11.88121617 11.82737096 -10.75476949 10.66204862 -9.625 9.5 C-8.99851563 8.8503125 -8.37203125 8.200625 -7.7265625 7.53125 C-6 6 -6 6 -4 6 C-4 5.34 -4 4.68 -4 4 C-2.70766393 2.62689293 -1.37562854 1.28965176 0 0 Z " fill="#CDCDCD" transform="translate(196,672)"/>
<path d="M0 0 C0.66 0.33 1.32 0.66 2 1 C1.3503125 1.55429687 0.700625 2.10859375 0.03125 2.6796875 C-1.22171875 3.76636719 -1.22171875 3.76636719 -2.5 4.875 C-3.75296875 5.95394531 -3.75296875 5.95394531 -5.03125 7.0546875 C-5.6809375 7.69664062 -6.330625 8.33859375 -7 9 C-7 9.66 -7 10.32 -7 11 C-8.65 11 -10.3 11 -12 11 C-12 10.34 -12 9.68 -12 9 C-8.53846154 6 -8.53846154 6 -6 6 C-6 5.34 -6 4.68 -6 4 C-4.03852126 2.61061923 -2.03833424 1.2739589 0 0 Z " fill="#BEBEBF" transform="translate(278,300)"/>
<path d="M0 0 C0.66 0.33 1.32 0.66 2 1 C-3.31926121 6.76253298 -3.31926121 6.76253298 -7 7 C-8.33879764 6.68933977 -9.67323492 6.35858516 -11 6 C-9.21385682 4.96953278 -7.42089982 3.95086764 -5.625 2.9375 C-4.62726563 2.36902344 -3.62953125 1.80054688 -2.6015625 1.21484375 C-1.74304688 0.81394531 -0.88453125 0.41304687 0 0 Z " fill="#4D4D4D" transform="translate(425,539)"/>
<path d="M0 0 C3.11984635 1.31033547 6.12788143 2.74258075 9.125 4.3125 C5.98181547 5.88409226 3.19566611 4.35268399 0 3.375 C-0.65871094 3.17970703 -1.31742187 2.98441406 -1.99609375 2.78320312 C-3.62433552 2.29945014 -5.24993182 1.80680925 -6.875 1.3125 C-3.234375 -0.7734375 -3.234375 -0.7734375 0 0 Z " fill="#414141" transform="translate(416.875,621.6875)"/>
<path d="M0 0 C0.33 0 0.66 0 1 0 C1.23626374 13.46703297 1.23626374 13.46703297 -1.5625 16.9375 C-2.036875 17.288125 -2.51125 17.63875 -3 18 C-2.32418477 11.91766294 -1.26361972 5.98685848 0 0 Z " fill="#323232" transform="translate(498,434)"/>
<path d="M0 0 C1 4 1 4 1 6 C-1.3125 8.1875 -1.3125 8.1875 -4 10 C-4.99 9.67 -5.98 9.34 -7 9 C-4.69 6.03 -2.38 3.06 0 0 Z " fill="#3B3B3B" transform="translate(472,498)"/>
<path d="M0 0 C0.79921875 0.00902344 1.5984375 0.01804687 2.421875 0.02734375 C3.02515625 0.03894531 3.6284375 0.05054688 4.25 0.0625 C3.16796875 1.55078125 3.16796875 1.55078125 1.25 3.0625 C-1.88671875 3.35546875 -1.88671875 3.35546875 -5.4375 3.25 C-7.20673828 3.20939453 -7.20673828 3.20939453 -9.01171875 3.16796875 C-9.91535156 3.13316406 -10.81898438 3.09835937 -11.75 3.0625 C-7.71076287 0.36967525 -4.79463848 -0.07050939 0 0 Z " fill="#D2D2D2" transform="translate(326.75,615.9375)"/>
<path d="M0 0 C0.33 0.66 0.66 1.32 1 2 C0.00390625 4.3828125 0.00390625 4.3828125 -1.4375 7.125 C-1.91058594 8.03507812 -2.38367188 8.94515625 -2.87109375 9.8828125 C-3.24363281 10.58148438 -3.61617188 11.28015625 -4 12 C-4.33 12 -4.66 12 -5 12 C-5.20140476 8.37471432 -4.85776765 6.13498292 -3 3 C-2.34 3 -1.68 3 -1 3 C-0.67 2.01 -0.34 1.02 0 0 Z " fill="#DEDEDE" transform="translate(489,466)"/>
<path d="M0 0 C1.32 0.33 2.64 0.66 4 1 C1.51047079 3.66735273 -0.63408134 5.55746343 -4 7 C-3.67 5.68 -3.34 4.36 -3 3 C-2.34 3.33 -1.68 3.66 -1 4 C-0.67 2.68 -0.34 1.36 0 0 Z " fill="#161616" transform="translate(220,650)"/>
<path d="M0 0 C0 4.61538462 0 4.61538462 -1 7 C-3.5625 8.25 -3.5625 8.25 -6 9 C-4.68775452 5.06326356 -3.08089673 2.77280706 0 0 Z " fill="#B9B9B9" transform="translate(167,703)"/>
<path d="M0 0 C0 0.66 0 1.32 0 2 C-2.5614657 4.29648649 -3.47967572 5 -7 5 C-7.33 4.34 -7.66 3.68 -8 3 C-7.34 3 -6.68 3 -6 3 C-6 2.34 -6 1.68 -6 1 C-3.92446352 0.4465236 -2.15634036 0 0 0 Z " fill="#C5C5C5" transform="translate(263,632)"/>
<path d="M0 0 C0.33 0.66 0.66 1.32 1 2 C0.0625 4.125 0.0625 4.125 -1 6 C-1.66 6 -2.32 6 -3 6 C-3.66 7.65 -4.32 9.3 -5 11 C-5.66 10.01 -6.32 9.02 -7 8 C-5.36587557 6.29159719 -4.13093906 5.06546953 -2 4 C-0.86649466 1.98330173 -0.86649466 1.98330173 0 0 Z " fill="#B4B4B4" transform="translate(482,482)"/>
<path d="M0 0 C0.33 0.66 0.66 1.32 1 2 C-0.5039544 4.79305817 -2.24016054 7.36024081 -4 10 C-4.66 9.67 -5.32 9.34 -6 9 C-4.02 6.03 -2.04 3.06 0 0 Z " fill="#B9B9B9" transform="translate(160,712)"/>
<path d="M0 0 C1.32 0.99 2.64 1.98 4 3 C2.68 4.65 1.36 6.3 0 8 C-1.125 2.25 -1.125 2.25 0 0 Z " fill="#171717" transform="translate(154,713)"/>
<path d="M0 0 C0.66 0 1.32 0 2 0 C2 0.66 2 1.32 2 2 C3.32 2.66 4.64 3.32 6 4 C5.67 5.32 5.34 6.64 5 8 C2.74754119 5.31158141 1.11786042 3.35358125 0 0 Z " fill="#3B3B3B" transform="translate(472,333)"/>
<path d="M0 0 C0.66 0.33 1.32 0.66 2 1 C0.35 2.98 -1.3 4.96 -3 7 C-3.99 6.34 -4.98 5.68 -6 5 C-4.02 3.35 -2.04 1.7 0 0 Z " fill="#C9C9C9" transform="translate(218,655)"/>
</svg>
