<?xml version="1.0" encoding="UTF-8"?>
<svg version="1.1" xmlns="http://www.w3.org/2000/svg" width="1024" height="1024">
<path d="M0 0 C337.92 0 675.84 0 1024 0 C1024 337.92 1024 675.84 1024 1024 C686.08 1024 348.16 1024 0 1024 C0 686.08 0 348.16 0 0 Z " fill="#FCFCFC" transform="translate(0,0)"/>
<path d="M0 0 C2.50503563 1.31899258 4.98389186 2.67741199 7.45776367 4.05395508 C8.39048096 4.56772705 9.32319824 5.08149902 10.28417969 5.61083984 C21.07390869 11.581186 31.7630554 17.73041316 42.45892334 23.86668396 C48.07585374 27.08852249 53.69947713 30.29829958 59.33276367 33.49145508 C60.70549438 34.26960571 60.70549438 34.26960571 62.10595703 35.06347656 C70.20615852 39.63298553 78.38614472 44.05243349 86.60522461 48.40429688 C101.01724574 56.10740129 101.01724574 56.10740129 102.58276367 60.80395508 C102.7197314 62.17010226 102.80728186 63.54150656 102.86401367 64.91333008 C102.90083252 65.79126221 102.93765137 66.66919434 102.97558594 67.57373047 C103.01095459 68.55720459 103.04632324 69.54067871 103.08276367 70.55395508 C103.12264404 71.59350342 103.16252441 72.63305176 103.20361328 73.70410156 C103.90470083 93.39605192 104.20096352 113.10380369 104.58276367 132.80395508 C105.35801392 133.10511986 105.35801392 133.10511986 106.14892578 133.41236877 C117.44900196 137.82028121 128.54883653 142.48049293 139.48220825 147.73254395 C143.12298835 149.48123552 146.77352465 151.20939369 150.42260742 152.94067383 C151.13190903 153.27785431 151.84121063 153.61503479 152.57200623 153.96243286 C160.4569642 157.70566349 168.40736077 161.29948403 176.38856506 164.83235168 C178.70543236 165.85827346 181.02105347 166.88696875 183.33642578 167.91625977 C184.13511581 168.27129578 184.93380585 168.62633179 185.75669861 168.99212646 C186.66060081 169.39398163 186.66060081 169.39398163 187.58276367 169.80395508 C187.59085052 170.72801651 187.59893738 171.65207794 187.60726929 172.60414124 C187.68533303 181.32875249 187.77265917 190.0532119 187.87029076 198.77762699 C187.92015549 203.26252738 187.96648616 207.74740534 188.00463867 212.23242188 C188.04161586 216.56378838 188.08800905 220.89496259 188.14082718 225.22616386 C188.15930523 226.87545829 188.17443731 228.52479383 188.18610764 230.17415047 C188.20308348 232.49113623 188.23214445 234.8076879 188.26391602 237.12451172 C188.28390152 239.09974571 188.28390152 239.09974571 188.30429077 241.11488342 C188.72819522 247.97075462 188.72819522 247.97075462 192.41966248 253.42710876 C193.16369827 253.77826248 193.90773407 254.1294162 194.67431641 254.49121094 C195.51957382 254.90531723 196.36483124 255.31942352 197.23570251 255.74607849 C198.15331863 256.1660762 199.07093475 256.58607391 200.01635742 257.01879883 C200.96406509 257.4782338 201.91177277 257.93766876 202.88819885 258.411026 C205.92171384 259.8777191 208.96938085 261.31128601 212.02026367 262.74145508 C237.15755789 274.66790854 237.15755789 274.66790854 245.58276367 281.80395508 C246.56631836 282.6212207 247.54987305 283.43848633 248.56323242 284.28051758 C264.80346678 300.08959527 271.31059982 322.57032422 271.917099 344.78271484 C271.95598359 347.88626687 271.95238358 350.98747361 271.91894531 354.09106445 C271.8951942 356.43581386 271.89844266 358.7794265 271.9050293 361.12426758 C271.88134403 374.86028962 270.7406936 388.28497406 266.95776367 401.55395508 C266.69906494 402.47442627 266.44036621 403.39489746 266.17382812 404.34326172 C261.20906109 421.43568163 254.3982857 437.13678464 243.86401367 451.53833008 C241.76761199 454.53934345 240.90815139 456.22469023 240.58276367 459.80395508 C241.29819336 459.90708008 242.01362305 460.01020508 242.75073242 460.11645508 C253.81850915 462.80325329 261.84993602 472.32546557 267.77026367 481.49145508 C279.73701095 502.66838184 280.22580845 526.49810825 280.0322876 550.15759277 C280.01628948 552.93022003 280.02638115 555.70250928 280.03600502 558.47514629 C280.0896896 577.77960302 279.54211926 597.01639909 273.83276367 615.61645508 C273.44544067 616.91160034 273.44544067 616.91160034 273.05029297 618.23291016 C266.77028499 638.58133973 256.04504161 656.38705045 242.58276367 672.80395508 C242.14464355 673.34358887 241.70652344 673.88322266 241.25512695 674.43920898 C227.5172836 691.3134559 212.76714289 704.52194417 193.58276367 714.80395508 C192.66301758 715.29879395 191.74327148 715.79363281 190.7956543 716.3034668 C186.44119081 718.64610171 182.08597118 720.98729822 177.7277832 723.32299805 C169.57912909 727.69914857 161.50942476 732.19774586 153.47070312 736.77197266 C145.79171254 741.13609302 138.0702237 745.4197805 130.33276367 749.67895508 C129.10041432 750.35756855 127.86807383 751.03619812 126.63574219 751.71484375 C126.02503372 752.05115311 125.41432526 752.38746246 124.78511047 752.73396301 C123.86897224 753.23847237 123.86897224 753.23847237 122.93432617 753.75317383 C122.32312424 754.08971481 121.7119223 754.4262558 121.0821991 754.772995 C106.37342839 762.87426499 91.69251247 771.02530888 77.08276367 779.30395508 C58.47249872 789.8438957 39.77715678 800.20137976 20.88647461 810.22900391 C13.02648481 814.42677733 5.31327353 818.82868879 -2.35473633 823.36645508 C-25.84880305 837.20861627 -25.84880305 837.20861627 -34.41723633 835.80395508 C-41.81018789 833.34708296 -48.4582152 829.7084761 -55.16723633 825.80395508 C-57.20413362 824.63448173 -59.24191606 823.46654887 -61.28051758 822.30004883 C-62.81699951 821.42002197 -62.81699951 821.42002197 -64.38452148 820.5222168 C-69.00566601 817.90398985 -73.67963461 815.38662048 -78.35473633 812.86645508 C-87.01697853 808.17705114 -95.54473025 803.28503986 -104.03637695 798.29418945 C-111.1839899 794.0953675 -118.37059243 789.96998721 -125.57843018 785.87591553 C-139.32175559 778.06569462 -152.91264522 770.02129121 -166.41723633 761.80395508 C-167.63999268 761.06508057 -167.63999268 761.06508057 -168.88745117 760.3112793 C-191.89456584 746.39327407 -191.89456584 746.39327407 -194.41723633 738.80395508 C-194.66859335 736.25639379 -194.66859335 736.25639379 -194.67056942 733.49626732 C-194.67618482 732.4396601 -194.68180021 731.38305289 -194.68758577 730.29442728 C-194.68360468 729.13986241 -194.67962358 727.98529753 -194.67552185 726.79574585 C-194.67919756 725.56444116 -194.68287326 724.33313648 -194.68666035 723.06451952 C-194.69491612 719.64966237 -194.69426881 716.2350148 -194.68993342 712.8201642 C-194.68745698 709.13643972 -194.6965256 705.45274223 -194.70431519 701.76902771 C-194.71635903 695.38702303 -194.72146804 689.00504332 -194.72219658 682.6230278 C-194.72352177 673.39242975 -194.73862894 664.16189237 -194.75769175 654.93131573 C-194.78853215 639.95104416 -194.81269956 624.97077105 -194.83056641 609.99047852 C-194.83217543 608.6456376 -194.83217543 608.6456376 -194.83381695 607.27362819 C-194.84564258 597.26597728 -194.85584766 587.25832575 -194.86425781 577.25067139 C-194.86733185 573.61934406 -194.87042061 569.98801675 -194.87353516 566.35668945 C-194.87468316 565.01257569 -194.87468316 565.01257569 -194.87585437 563.64130811 C-194.88892323 548.71477601 -194.91354331 533.78828792 -194.94727856 518.86178839 C-194.96759665 509.65090488 -194.9778541 500.44011541 -194.97528935 491.22920932 C-194.97425645 484.92270141 -194.98385613 478.61626799 -195.00192838 472.30978607 C-195.01200002 468.66789857 -195.01707308 465.0261758 -195.009161 461.38427925 C-195.00069814 457.44215146 -195.01516215 453.50030261 -195.03196716 449.55819702 C-195.02264944 447.81965755 -195.02264944 447.81965755 -195.01314348 446.04599607 C-195.02136662 444.99460435 -195.02958977 443.94321263 -195.0380621 442.85996056 C-195.03928378 441.49418501 -195.03928378 441.49418501 -195.04053015 440.10081804 C-195.49498938 437.32987709 -196.24054967 436.5167893 -198.41723633 434.80395508 C-200.13628707 433.70741598 -201.88846651 432.66217732 -203.65942383 431.65161133 C-204.71427979 431.04639648 -205.76913574 430.44118164 -206.85595703 429.81762695 C-207.9899292 429.17374023 -209.12390137 428.52985352 -210.29223633 427.86645508 C-211.47888543 427.18908329 -212.66532515 426.51134456 -213.8515625 425.83325195 C-215.655022 424.80276925 -217.45883795 423.7729418 -219.26390076 422.74526978 C-222.78359999 420.74123468 -226.2915024 418.71870141 -229.78833008 416.67504883 C-241.00985901 410.14033962 -252.43937788 404.07552254 -264.03173828 398.22973633 C-288.5807624 385.74608209 -288.5807624 385.74608209 -291.41723633 377.80395508 C-292.34336099 371.91157862 -292.56568371 366.17658924 -292.56440735 360.21980286 C-292.56808404 359.28544535 -292.57176072 358.35108784 -292.57554883 357.38841647 C-292.58651577 354.27407534 -292.59041742 351.15976764 -292.59423828 348.04541016 C-292.60050777 345.80606482 -292.60715499 343.56672051 -292.614151 341.32737732 C-292.63512024 333.99275426 -292.6455405 326.65813115 -292.65551758 319.32348633 C-292.65956654 316.79636817 -292.6636835 314.26925012 -292.66786766 311.74213219 C-292.68471943 301.23590457 -292.69935855 290.72967806 -292.7066164 280.22343922 C-292.70852608 277.50328889 -292.71044646 274.78313857 -292.71240234 272.06298828 C-292.71288608 271.38696368 -292.71336982 270.71093907 -292.71386822 270.01442888 C-292.72218239 259.0445679 -292.74755107 248.07481547 -292.77998302 237.10500196 C-292.81303677 225.83285138 -292.8307302 214.56075405 -292.83426064 203.28854865 C-292.83661461 196.96321095 -292.8456218 190.63804549 -292.87072182 184.31275368 C-292.893929 178.36930992 -292.89826541 172.4261528 -292.88796043 166.48267555 C-292.88746332 164.29974415 -292.89383509 162.11679896 -292.90751648 159.93391037 C-292.92512814 156.95797854 -292.91818224 153.98308769 -292.90498352 151.00715637 C-292.91595277 150.14004133 -292.92692201 149.27292628 -292.93822366 148.37953502 C-292.89472342 144.32786438 -292.74271432 142.31446396 -290.51414776 138.81898022 C-288.45943818 136.84450891 -286.65763511 135.50842341 -284.14770508 134.17504883 C-283.27871582 133.70768311 -282.40972656 133.24031738 -281.5144043 132.75878906 C-280.55421387 132.25806885 -279.59402344 131.75734863 -278.60473633 131.24145508 C-277.067771 130.42366577 -277.067771 130.42366577 -275.49975586 129.58935547 C-263.60898026 123.29995565 -251.60750714 117.21903062 -239.62597656 111.10498047 C-230.24375447 106.31262242 -220.92994994 101.43234875 -211.7175293 96.31933594 C-203.21300569 91.62800414 -194.56409441 87.22513654 -185.91723633 82.80395508 C-174.47385098 76.95063473 -163.10655137 70.99702096 -151.85083008 64.78833008 C-145.44565804 61.25658441 -138.99326523 57.81339836 -132.54223633 54.36645508 C-115.26330912 45.12756039 -98.04028239 35.78748604 -80.84545898 26.39306641 C-72.62879926 21.90891648 -64.38641885 17.47309059 -56.14013672 13.04370117 C-50.7440904 10.14289665 -45.35579674 7.22927599 -39.98364258 4.28442383 C-38.97108398 3.72948242 -37.95852539 3.17454102 -36.9152832 2.6027832 C-35.00260891 1.55291209 -33.0910901 0.50093228 -31.1809082 -0.5534668 C-30.33206055 -1.01946289 -29.48321289 -1.48545898 -28.60864258 -1.96557617 C-27.49791382 -2.57816284 -27.49791382 -2.57816284 -26.36474609 -3.203125 C-17.13701411 -7.90779918 -8.61990944 -4.26511831 0 0 Z " fill="#010101" transform="translate(544.417236328125,79.196044921875)"/>
<path d="M0 0 C11.73951348 9.79656265 14.67671093 25.4348815 16.3125 39.9375 C16.5983499 44.96217363 16.64635534 49.96799105 16.625 55 C16.62350952 55.67392792 16.62201904 56.34785583 16.6204834 57.04220581 C16.52350483 81.55064466 11.87014143 104.17001311 -0.5 125.5625 C-0.89010254 126.2428833 -1.28020508 126.9232666 -1.68212891 127.62426758 C-8.23842474 138.65484585 -16.96518059 147.43664608 -26.15478516 156.28833008 C-27.56773499 157.65326706 -28.9715317 159.02765945 -30.375 160.40234375 C-31.20386719 161.202771 -32.03273438 162.00319824 -32.88671875 162.82788086 C-35.01211939 164.85551216 -35.01211939 164.85551216 -34.6875 167.9375 C-33.30691406 168.08445312 -33.30691406 168.08445312 -31.8984375 168.234375 C-17.16137932 169.97520876 -0.85975784 172.52702128 9.375 184.3125 C23.98823012 204.11106984 24.57391729 225.71117618 24.7175293 249.37524414 C24.73893044 252.01144656 24.7728141 254.64758152 24.82006836 257.28344727 C25.59602542 301.10983356 10.88471486 335.1974167 -18.6875 366.9375 C-30.44158796 378.86030693 -44.33641539 387.64093142 -59.00244141 395.48876953 C-64.23923897 398.31429751 -69.42724381 401.22849228 -74.625 404.125 C-76.95945885 405.42219439 -79.2940795 406.71909334 -81.62890625 408.015625 C-86.22078837 410.56638543 -90.81182045 413.11866966 -95.40234375 415.671875 C-106.41493985 421.79563764 -117.43487031 427.90550271 -128.47158813 433.98565674 C-148.76030337 445.16474791 -168.96347648 456.47617851 -189.01171875 468.08203125 C-196.51249425 472.42120385 -204.04118787 476.71088429 -211.5697937 481.00149536 C-221.10342863 486.43704351 -230.59472871 491.94129528 -240.05126953 497.51000977 C-252.70518344 504.9375 -252.70518344 504.9375 -255.6875 504.9375 C-256.47983461 482.2482442 -256.85027845 459.58507669 -256.87686086 436.88271677 C-256.88297057 432.53620401 -256.89453438 428.18970433 -256.90515137 423.84320068 C-256.92927791 413.44127395 -256.94421321 403.03934308 -256.95721143 392.63739726 C-256.96094346 389.69451596 -256.96491458 386.75163508 -256.9689641 383.80875421 C-256.99414722 365.46018557 -257.0161566 347.11161587 -257.02869225 328.76303387 C-257.03162073 324.54880966 -257.03458266 320.33458548 -257.03759766 316.12036133 C-257.03871673 314.54969502 -257.03871673 314.54969502 -257.03985842 312.94729809 C-257.0525806 295.89085715 -257.08592626 278.83451876 -257.12739949 261.77812602 C-257.16976778 244.20872205 -257.19337849 226.639371 -257.19861281 209.06991607 C-257.20202528 199.22716492 -257.21376795 189.38457645 -257.24671555 179.54187584 C-257.27464194 171.18751369 -257.28574618 162.83334794 -257.27452008 154.47894271 C-257.26932112 150.21879428 -257.27230241 145.95905791 -257.29698563 141.69896889 C-257.31937759 137.80222345 -257.31881807 133.90618863 -257.29978175 130.00943158 C-257.29696824 128.59851466 -257.30265504 127.18755051 -257.31759469 125.77670988 C-257.43563323 113.90715426 -257.43563323 113.90715426 -254.28916359 110.65659809 C-251.93462636 109.10079338 -249.67418677 107.6174351 -247.15234375 106.3515625 C-245.8372583 105.68000122 -245.8372583 105.68000122 -244.49560547 104.99487305 C-243.07465576 104.28584839 -243.07465576 104.28584839 -241.625 103.5625 C-239.54210899 102.50038229 -237.46011628 101.43650157 -235.37890625 100.37109375 C-234.28465332 99.81276855 -233.19040039 99.25444336 -232.06298828 98.67919922 C-226.35662312 95.73480394 -220.71317028 92.67450511 -215.0625 89.625 C-205.501026 84.4787501 -195.8995442 79.41663942 -186.25 74.4375 C-185.65297272 74.12939392 -185.05594543 73.82128784 -184.44082642 73.50384521 C-178.9449321 70.6688741 -173.44541359 67.84095879 -167.9453125 65.01416016 C-164.21228859 63.09520166 -160.48047925 61.17390077 -156.75 59.25 C-156.14135101 58.93612335 -155.53270203 58.6222467 -154.90560913 58.29885864 C-146.18248352 53.79544162 -137.53695243 49.16628515 -128.93847656 44.42944336 C-118.31456659 38.5964593 -107.52531946 33.08277297 -96.75537109 27.52587891 C-92.59610182 25.37243263 -88.4532114 23.18884544 -84.3125 21 C-82.0155042 19.79178021 -79.71796419 18.58459928 -77.42041016 17.37744141 C-75.38455421 16.30477048 -73.35068966 15.22831834 -71.31787109 14.14990234 C-19.12025487 -13.53420378 -19.12025487 -13.53420378 0 0 Z " fill="#FBFBFB" transform="translate(779.6875,384.0625)"/>
<path d="M0 0 C3.67360529 0.46245042 6.38593487 1.56751222 9.5703125 3.4140625 C10.89361572 4.1728772 10.89361572 4.1728772 12.24365234 4.94702148 C13.19449707 5.50075439 14.1453418 6.0544873 15.125 6.625 C17.20252331 7.81745514 19.28067413 9.00881754 21.359375 10.19921875 C22.44669922 10.8236084 23.53402344 11.44799805 24.65429688 12.09130859 C30.20077716 15.25552217 35.78832052 18.34499634 41.375 21.4375 C43.66029481 22.70547948 45.94545089 23.97370901 48.23046875 25.2421875 C49.35630371 25.86706055 50.48213867 26.49193359 51.64208984 27.13574219 C66.17208389 35.20256162 80.64909289 43.33595503 94.98120117 51.75024414 C103.14004368 56.52873758 111.37956922 61.1519568 119.64233398 65.74780273 C126.83828781 69.76074762 133.96252548 73.88246604 141.0625 78.0625 C149.96859617 83.29868163 158.97864146 88.29770255 168.08154297 93.18261719 C175.7717956 97.3145813 183.3800447 101.5760005 190.96679688 105.89453125 C196.51651929 109.04735097 202.08582532 112.16077197 207.6796875 115.234375 C208.33433487 115.59423996 208.98898224 115.95410492 209.66346741 116.32487488 C212.88373833 118.09404755 216.1060175 119.8594459 219.33081055 121.62036133 C220.5135477 122.26897261 221.69624801 122.91765109 222.87890625 123.56640625 C223.9160376 124.13302979 224.95316895 124.69965332 226.02172852 125.28344727 C227.00455811 125.84990967 227.9873877 126.41637207 229 127 C230.03737808 127.54403976 231.07475616 128.08807953 232.14356995 128.64860535 C235 131 235 131 235.7215271 134.32830811 C235.73884829 135.66511666 235.72311532 137.00260514 235.68115234 138.33886719 C235.68246658 139.43702003 235.68246658 139.43702003 235.68380737 140.55735779 C235.67963473 142.97162468 235.63300597 145.38309516 235.5859375 147.796875 C235.57474401 149.47266115 235.56620454 151.14846697 235.56021118 152.82427979 C235.53732435 157.23067633 235.4784038 161.6358823 235.4119873 166.04180908 C235.35056077 170.53942763 235.32319547 175.03723896 235.29296875 179.53515625 C235.22865927 188.35729335 235.12628256 197.1785476 235 206 C232 207 232 207 229.4699707 205.85107422 C228.46538818 205.2582666 227.46080566 204.66545898 226.42578125 204.0546875 C225.29551514 203.39629883 224.16524902 202.73791016 223.00073242 202.05957031 C222.40005951 201.70366821 221.7993866 201.34776611 221.18051147 200.9810791 C218.01040432 199.10400858 214.82014041 197.26168428 211.6328125 195.4140625 C210.66395363 194.8506012 210.66395363 194.8506012 209.67552185 194.27575684 C203.73652465 190.82794268 197.73177632 187.50979486 191.6875 184.25 C190.71353271 183.72462646 189.73956543 183.19925293 188.73608398 182.65795898 C181.0255786 178.51828401 173.2651097 174.47655551 165.49829102 170.44384766 C155.24989142 165.11170297 145.10953336 159.59028016 135 154 C133.99678711 153.44554199 132.99357422 152.89108398 131.95996094 152.31982422 C118.66289654 144.95635139 105.48135509 137.42187372 92.421875 129.64453125 C91.64134766 129.17998535 90.86082031 128.71543945 90.05664062 128.23681641 C88.40589219 127.24409424 86.77057573 126.22573144 85.140625 125.19921875 C83.0566393 124.03173041 81.31019908 123.52617172 79 123 C78.9655051 130.01150634 78.9853809 137.02136229 79.04272461 144.03271484 C79.05584887 146.41679339 79.05661287 148.8009738 79.04467773 151.18505859 C79.02965858 154.61657834 79.05936069 158.04527401 79.09765625 161.4765625 C79.08340103 162.53928375 79.06914581 163.602005 79.05445862 164.69692993 C79.09444547 170.15505602 79.09444547 170.15505602 81.42007446 174.92964172 C83.1985306 176.50675086 84.96989768 177.76767912 87 179 C87.93875977 179.60062256 88.87751953 180.20124512 89.84472656 180.82006836 C90.76737305 181.32159424 91.69001953 181.82312012 92.640625 182.33984375 C93.69741455 182.92008301 94.7542041 183.50032227 95.84301758 184.09814453 C96.96732178 184.70513184 98.09162598 185.31211914 99.25 185.9375 C100.44540283 186.59137694 101.64029889 187.24618111 102.8347168 187.90185547 C105.31468488 189.26208732 107.79676014 190.61833967 110.28076172 191.97119141 C116.13878588 195.16357879 121.97742849 198.39086179 127.8125 201.625 C128.93317871 202.24600586 130.05385742 202.86701172 131.20849609 203.50683594 C139.24071407 207.97659373 147.17686234 212.59034686 155.07324219 217.29516602 C161.20195063 220.94622785 167.36444484 224.53044816 173.5625 228.0625 C174.4282666 228.5560498 175.2940332 229.04959961 176.18603516 229.55810547 C181.29618403 232.4676935 186.41018574 235.3704523 191.53210449 238.25927734 C193.24632484 239.23891982 194.95183493 240.234118 196.64431763 241.25085449 C201.4764281 244.13168979 206.23923561 246.5618394 211.46362305 248.65722656 C218.52883705 251.74495525 225.03798154 254.94385436 230 261 C233.78873354 271.31006325 232.48644897 282.78975019 231.71661377 293.55218506 C231.45821159 297.55163671 231.34616602 301.55511206 231.22070312 305.56054688 C230.95454262 313.38459745 230.52972915 321.18888537 230 329 C226.05706194 328.39226342 222.92250101 327.70612642 219.3828125 325.84765625 C218.11256226 325.18443359 218.11256226 325.18443359 216.81665039 324.5078125 C215.92840576 324.03085937 215.04016113 323.55390625 214.125 323.0625 C213.20259521 322.57394531 212.28019043 322.08539062 211.32983398 321.58203125 C204.13315725 317.7222499 197.19889664 313.53230744 190.34765625 309.09375 C184.73305913 305.24513731 184.73305913 305.24513731 178.3125 304.25 C176.53900418 304.82518783 174.76876104 305.41041299 173 306 C173.00037972 306.60218458 173.00075944 307.20436915 173.00115067 307.82480174 C173.02357013 343.58261724 173.04070742 379.34043151 173.05106533 415.09825258 C173.05231591 419.39989301 173.05361024 423.70153342 173.05493164 428.00317383 C173.05532511 429.28764356 173.05532511 429.28764356 173.05572652 430.59806218 C173.06006775 444.4300618 173.06794674 458.26205723 173.0771528 472.09405438 C173.08653245 486.30631183 173.09206471 500.51856709 173.09408849 514.73082751 C173.09545479 523.48758154 173.0997567 532.24432372 173.10791647 541.0010741 C173.1132372 547.02084192 173.11479228 553.0406037 173.11350138 559.0603737 C173.11286626 562.52391635 173.11378046 565.98743842 173.11920547 569.45097733 C173.13862119 584.00220771 172.98969254 598.47907874 172 613 C167.4749537 612.41448068 164.03261113 611.82484525 160.05859375 609.55078125 C158.70580322 608.78411133 158.70580322 608.78411133 157.32568359 608.00195312 C155.89603271 607.16567383 155.89603271 607.16567383 154.4375 606.3125 C153.43025879 605.73306641 152.42301758 605.15363281 151.38525391 604.55664062 C142.59339054 599.45124546 134.01462024 594.03189433 125.4765625 588.515625 C118.89153595 584.26522478 112.21309673 580.16830504 105.52294922 576.0859375 C104.69553223 575.57804688 103.86811523 575.07015625 103.015625 574.546875 C101.92169434 573.87930176 101.92169434 573.87930176 100.80566406 573.19824219 C99 572 99 572 97 570 C96.75390434 567.82733554 96.75390434 567.82733554 96.75949097 565.06704235 C96.75536792 563.49294134 96.75536792 563.49294134 96.75116158 561.88704032 C96.7583515 560.72510116 96.76554142 559.56316201 96.77294922 558.36601257 C96.7726515 557.13868229 96.77235378 555.91135201 96.77204704 554.6468299 C96.77319968 551.22903564 96.78335545 547.81147685 96.79718685 544.39372408 C96.80989949 540.71197377 96.81107036 537.03021859 96.8135376 533.34844971 C96.81931987 526.96474169 96.83221321 520.5810797 96.84967041 514.19739342 C96.87474016 504.9621354 96.88692315 495.72689454 96.89553714 486.49160812 C96.90968353 471.50196022 96.93129591 456.51233383 96.95898438 441.52270508 C96.96064 440.62497259 96.96229562 439.7272401 96.96400142 438.80230359 C96.97748875 431.51937392 96.99133622 424.23644495 97.00520706 416.95351601 C97.01730971 410.59181371 97.02927129 404.23011117 97.04101562 397.8684082 C97.04267188 396.972675 97.04432813 396.07694179 97.04603457 395.15406515 C97.07339507 380.22539014 97.09292005 365.29671476 97.10683632 350.36802131 C97.11580626 341.15503211 97.13190198 331.94210696 97.15712595 322.72914765 C97.17396305 316.41655828 97.1837556 310.10398367 97.18797636 303.79137333 C97.1906696 300.14724879 97.19670695 296.50320709 97.21149445 292.85910988 C97.22745499 288.91103602 97.22800485 284.96304634 97.22705078 281.01493835 C97.2342407 279.85969136 97.24143063 278.70444437 97.24883842 277.5141899 C97.24471538 275.92835403 97.24471538 275.92835403 97.24050903 274.31048107 C97.24235262 273.39909726 97.24419621 272.48771345 97.24609566 271.54871196 C96.96946526 268.68376425 96.27430639 266.57564411 95 264 C92.69041269 262.10023133 92.69041269 262.10023133 89.8125 260.5390625 C88.73484375 259.91056396 87.6571875 259.28206543 86.546875 258.63452148 C85.36476375 257.96436264 84.18246696 257.29453099 83 256.625 C81.77531536 255.91800469 80.55136735 255.20973197 79.328125 254.50024414 C76.80001755 253.03702904 74.26733175 251.58225768 71.73046875 250.13427734 C68.26752647 248.15661754 64.81957662 246.15404074 61.375 244.14453125 C48.01844421 236.3667932 34.54107042 228.82109313 21.01953125 221.3359375 C16.14803156 218.63874013 11.28144164 215.93392352 6.4375 213.1875 C5.40496094 212.60355469 4.37242187 212.01960937 3.30859375 211.41796875 C1 210 1 210 -1 208 C-1.19553541 205.2690623 -1.26482705 202.63967475 -1.24723816 199.90769958 C-1.24965257 199.06140096 -1.25206699 198.21510234 -1.25455457 197.3431583 C-1.26021631 194.49098349 -1.25150988 191.63903019 -1.24291992 188.78686523 C-1.24399218 186.74880919 -1.24593003 184.71075345 -1.24867249 182.67269897 C-1.25353261 177.12537659 -1.24585085 171.57813426 -1.23571944 166.03082156 C-1.22695907 160.23767606 -1.22869599 154.44453322 -1.2290802 148.65138245 C-1.22814271 138.92227838 -1.21944698 129.19320544 -1.20581055 119.46411133 C-1.19007973 108.19876714 -1.18481254 96.93345706 -1.1855461 85.66810268 C-1.18615543 74.85162215 -1.181059 64.03515279 -1.17275429 53.21867561 C-1.16921408 48.60583471 -1.16738999 43.99299776 -1.16686058 39.38015556 C-1.16585958 33.95396415 -1.15978297 28.52780162 -1.14969444 23.10161972 C-1.14676171 21.10408136 -1.14554563 19.10653968 -1.14612198 17.10899925 C-1.14660903 14.39440722 -1.14099317 11.6798974 -1.13371277 8.96531677 C-1.13526137 8.16416756 -1.13680997 7.36301834 -1.1384055 6.53759187 C-1.11417856 1.11417856 -1.11417856 1.11417856 0 0 Z " fill="#FBFBFB" transform="translate(273,238)"/>
<path d="M0 0 C3.55516077 1.61717971 6.99620815 3.40410298 10.4375 5.25 C11.44449951 5.78286621 12.45149902 6.31573242 13.48901367 6.86474609 C23.54709629 12.22145422 33.45273323 17.84335062 43.34863281 23.4921875 C47.28093034 25.72845541 51.23192351 27.93024477 55.1875 30.125 C55.89358398 30.51840576 56.59966797 30.91181152 57.32714844 31.31713867 C61.37400271 33.56625929 65.43974951 35.77544128 69.5234375 37.95703125 C70.90752808 38.70218994 70.90752808 38.70218994 72.31958008 39.46240234 C74.11462338 40.42774739 75.91381461 41.38542848 77.7175293 42.33447266 C78.52359619 42.76937012 79.32966309 43.20426758 80.16015625 43.65234375 C80.87824463 44.03382568 81.59633301 44.41530762 82.33618164 44.80834961 C84 46 84 46 85 49 C84.26700684 49.36125977 83.53401367 49.72251953 82.77880859 50.09472656 C69.6776489 56.56458643 56.64526989 63.08913387 43.86474609 70.17675781 C35.17036377 74.96923282 26.33894465 79.48212026 17.5 84 C7.92201655 88.89845151 -1.64025661 93.80585085 -11.0625 99 C-20.16685539 104.01673959 -29.31798582 108.93965155 -38.5 113.8125 C-39.22074707 114.19523071 -39.94149414 114.57796143 -40.68408203 114.97229004 C-48.58997522 119.16439388 -56.52100356 123.29556851 -64.53515625 127.27734375 C-65.21730194 127.6163118 -65.89944763 127.95527985 -66.6022644 128.30451965 C-69.8190615 129.89942967 -73.04058395 131.48379417 -76.26953125 133.05395508 C-86.17988179 137.66776829 -86.17988179 137.66776829 -95 144 C-95.77510509 146.08909234 -95.77510509 146.08909234 -96 148 C-95.34515625 148.23847656 -94.6903125 148.47695312 -94.015625 148.72265625 C-90.9134412 150.03666415 -88.02791759 151.56337458 -85.07324219 153.17456055 C-76.4584107 157.85767565 -67.68185414 162.14324563 -58.75 166.1875 C-57.69135742 166.68113037 -56.63271484 167.17476074 -55.54199219 167.68334961 C-54.53297852 168.13202393 -53.52396484 168.58069824 -52.484375 169.04296875 C-51.59459961 169.44539795 -50.70482422 169.84782715 -49.78808594 170.26245117 C-43.4616377 171.93602386 -38.28259305 169.48995303 -32.765625 166.53515625 C-32.09442123 166.18626343 -31.42321747 165.83737061 -30.73167419 165.47790527 C-28.56587907 164.3491395 -26.40803288 163.20602473 -24.25 162.0625 C-22.75154561 161.27828297 -21.25260053 160.49500283 -19.75317383 159.71264648 C-15.49548413 157.4875829 -11.24693786 155.24549791 -7 153 C-5.10296217 151.99981489 -3.20584382 150.99978246 -1.30859375 150 C0.96849178 148.79954077 3.245085 147.59824733 5.51928711 146.39233398 C10.90609195 143.54456361 16.35018141 140.82455296 21.8125 138.125 C30.09920626 134.02697181 38.2282466 129.67552189 46.31567383 125.19775391 C48.0273249 124.25178645 49.74267502 123.31247674 51.46191406 122.38037109 C53.1931256 121.43882915 54.91355905 120.47726199 56.62402344 119.49853516 C60.37107863 117.44677843 63.08520706 116.03368628 67.39453125 115.875 C72.68388077 117.52541459 77.65184066 119.69786732 82.6875 122 C83.851604 122.524729 85.01570801 123.04945801 86.21508789 123.59008789 C99.24533607 129.48399232 112.1554071 135.64041325 125.07421875 141.7734375 C133.44565914 145.74752349 141.84158555 149.66733742 150.25 153.5625 C151.44616943 154.11671631 152.64233887 154.67093262 153.87475586 155.24194336 C156.58271544 156.4956171 159.2910693 157.74842637 162 159 C161.94116211 161.26245117 161.94116211 161.26245117 161 164 C158.62202712 165.52923008 156.49877518 166.66342717 153.94140625 167.80078125 C152.46977068 168.49466423 150.99859141 169.18951566 149.52783203 169.88525391 C148.77302551 170.23541565 148.01821899 170.58557739 147.24053955 170.9463501 C143.7954702 172.56644959 140.4123857 174.30176465 137.02734375 176.04296875 C136.37121094 176.37838181 135.71507812 176.71379486 135.0390625 177.05937195 C133.00404997 178.0998389 130.97053094 179.14316682 128.9375 180.1875 C128.22289612 180.55438934 127.50829224 180.92127869 126.77203369 181.29928589 C116.94387604 186.35398108 107.2601279 191.59405818 97.68359375 197.11376953 C89.06526288 202.04574404 80.25636803 206.57390626 71.4185791 211.09539795 C62.20478636 215.80986794 53.06814681 220.63139707 44.00585938 225.63305664 C36.17325753 229.94288594 28.2394346 234.04482809 20.27978516 238.11450195 C15.11409335 240.77719227 10.04424134 243.52230313 5.06640625 246.5234375 C4.12676025 247.08611328 3.18711426 247.64878906 2.21899414 248.22851562 C0.46199616 249.29246412 -1.28340376 250.37591583 -3.01391602 251.48242188 C-7.73159379 254.33642675 -11.18386883 255.78688883 -16.70361328 254.74316406 C-21.22537504 253.27981697 -25.14222257 250.89345847 -29.1875 248.4375 C-31.22049509 247.24500584 -33.25577165 246.05639511 -35.29296875 244.87109375 C-36.37368652 244.24058105 -37.4544043 243.61006836 -38.56787109 242.96044922 C-44.00485626 239.85481606 -49.53761121 236.93586714 -55.07546997 234.0151062 C-65.65596829 228.43435178 -76.13943634 222.72064523 -86.52832031 216.78857422 C-93.54577299 212.79249059 -100.63047737 208.93593539 -107.75 205.125 C-123.20669269 196.84705929 -138.57711403 188.40525114 -153.79296875 179.69140625 C-164.96420742 173.29922387 -176.25659811 167.2151775 -187.70635986 161.34085083 C-197.08275307 156.52985398 -206.3540364 151.58365382 -215.52099609 146.38525391 C-218.53627248 144.70033386 -221.57450746 143.06011918 -224.61328125 141.41796875 C-226.92970681 140.15368122 -229.24611314 138.88935844 -231.5625 137.625 C-232.6772168 137.02937256 -233.79193359 136.43374512 -234.94042969 135.82006836 C-235.97200195 135.25296143 -237.00357422 134.68585449 -238.06640625 134.1015625 C-239.4577478 133.34866943 -239.4577478 133.34866943 -240.87719727 132.58056641 C-243 131 -243 131 -243.80834961 128.80615234 C-243.87159424 128.21012207 -243.93483887 127.6140918 -244 127 C-231.63671671 119.89971092 -219.2082014 112.98424101 -206.54052734 106.44116211 C-200.168425 103.14537694 -193.84981408 99.76710668 -187.5625 96.3125 C-177.17449715 90.60958035 -166.7148226 85.04727635 -156.24414062 79.49829102 C-147.33532584 74.7763074 -138.44370615 70.02367938 -129.5625 65.25 C-119.75518514 59.98116187 -109.89953741 54.81472187 -100.01000977 49.70214844 C-92.38645444 45.74977864 -84.8433399 41.665249 -77.3203125 37.52539062 C-70.30941646 33.68054229 -63.22985637 29.98036544 -56.125 26.3125 C-49.29686198 22.78441324 -42.49509668 19.23506441 -35.8125 15.4375 C-35.20954102 15.0964624 -34.60658203 14.7554248 -33.98535156 14.40405273 C-31.08096228 12.7582575 -28.18147237 11.10464656 -25.28955078 9.43701172 C-22.32666108 7.73402632 -19.35179015 6.05354569 -16.375 4.375 C-15.43760986 3.82900146 -14.50021973 3.28300293 -13.53442383 2.72045898 C-5.12258713 -1.98508578 -5.12258713 -1.98508578 0 0 Z " fill="#FBFBFB" transform="translate(530,97)"/>
<path d="M0 0 C1.77697266 -0.02513672 1.77697266 -0.02513672 3.58984375 -0.05078125 C8.89004337 0.50368283 12.05335353 2.279885 15.75 6.0625 C25.28268574 19.45978806 23.60585082 39.72734195 21.30859375 55.2890625 C18.04169699 73.4936427 9.87159854 90.59918791 -5.66113281 101.52490234 C-9.75526428 104.17320416 -14.00767827 106.52889693 -18.28613281 108.86376953 C-21.2301389 110.47240048 -24.15838058 112.10772382 -27.0859375 113.74609375 C-32.82995288 116.95537444 -38.58532197 120.1437567 -44.34423828 123.32617188 C-49.73583106 126.30573148 -55.12272267 129.29375318 -60.5085144 132.28378296 C-62.231073 133.23949886 -63.95452108 134.19361102 -65.67797852 135.14770508 C-70.32086841 137.72249564 -74.95654589 140.30161789 -79.53125 142.99609375 C-80.17795654 143.37580322 -80.82466309 143.7555127 -81.4909668 144.14672852 C-83.07877789 145.08619259 -84.65901263 146.03843311 -86.23828125 146.9921875 C-89.2842752 148.48212376 -91.53653115 149.24824418 -94.9375 149.3125 C-97.34885684 147.6932007 -98.71264197 146.3651307 -99.3322773 143.46442413 C-99.52445819 141.08847 -99.58099502 138.74018773 -99.59790039 136.35644531 C-99.6193663 135.45187592 -99.64083221 134.54730652 -99.66294861 133.61532593 C-99.72645144 130.62366146 -99.75859292 127.63283342 -99.78515625 124.640625 C-99.80399274 123.10551395 -99.80399274 123.10551395 -99.82320976 121.53939056 C-99.88901292 116.12258992 -99.93101852 110.70621059 -99.95336914 105.2890625 C-99.98088046 99.70091359 -100.08732311 94.11723093 -100.2124567 88.53053665 C-100.29462073 84.22719899 -100.3184781 79.92492786 -100.32665825 75.6208725 C-100.34058181 73.5618151 -100.37621501 71.50278257 -100.43425179 69.44449615 C-100.84597182 53.76918119 -100.84597182 53.76918119 -97.67191887 49.68338013 C-94.18393979 46.63127469 -90.23624991 44.99787373 -85.9375 43.3125 C-84.29449706 42.39383477 -82.66371184 41.45211178 -81.05859375 40.46875 C-79.49873979 39.58096781 -77.9374998 38.69561719 -76.375 37.8125 C-74.55580654 36.78027044 -72.73680667 35.74769966 -70.91796875 34.71484375 C-69.95681152 34.16940918 -68.9956543 33.62397461 -68.00537109 33.06201172 C-64.74223664 31.20114737 -61.48958502 29.32285958 -58.23828125 27.44140625 C-10.81023882 0.0352125 -10.81023882 0.0352125 0 0 Z " fill="#010101" transform="translate(708.9375,614.6875)"/>
<path d="M0 0 C5.71186363 3.09125204 7.88686742 6.96224966 9.7734375 13.06640625 C10.28176501 16.63015369 10.29858772 20.09711433 10.2109375 23.69140625 C10.19699951 24.6548999 10.18306152 25.61839355 10.16870117 26.61108398 C9.7025806 44.82015259 5.05218024 62.75719611 -8.12451172 75.96948242 C-13.57050712 81.07457516 -19.17089329 84.49407206 -25.8515625 87.75390625 C-27.89888379 88.78690671 -29.94440924 89.82347279 -31.98828125 90.86328125 C-33.0251709 91.38986328 -34.06206055 91.91644531 -35.13037109 92.45898438 C-40.04845682 95.01226276 -44.85579172 97.75081356 -49.6640625 100.50390625 C-58.60724877 105.61134176 -67.61835843 110.57361744 -76.6940918 115.44165039 C-81.21805654 117.87302408 -85.7179587 120.32617376 -90.15234375 122.91796875 C-91.26041382 123.56233887 -91.26041382 123.56233887 -92.39086914 124.21972656 C-93.73626654 125.00778329 -95.07583275 125.80592255 -96.40795898 126.61621094 C-100.63547095 129.08852192 -100.63547095 129.08852192 -103.5234375 128.98046875 C-105.2265625 128.06640625 -105.2265625 128.06640625 -107.2265625 125.06640625 C-107.48725891 121.89872742 -107.48725891 121.89872742 -107.5012207 117.9362793 C-107.50633163 117.21396118 -107.51144257 116.49164307 -107.51670837 115.74743652 C-107.53061715 113.35758188 -107.52964624 110.96801533 -107.52734375 108.578125 C-107.53123087 106.91526685 -107.53556558 105.2524097 -107.54032898 103.58955383 C-107.5477946 100.10174342 -107.54749811 96.61403421 -107.54223633 93.1262207 C-107.53645076 88.66402383 -107.55334873 84.20224325 -107.576581 79.74011517 C-107.59134105 76.30422048 -107.5921868 72.86842542 -107.58907127 69.43250465 C-107.58958366 67.78792308 -107.59480589 66.1433358 -107.60488319 64.49878502 C-107.61727027 62.19382412 -107.61044222 59.88966561 -107.59887695 57.5847168 C-107.59950638 56.27472214 -107.6001358 54.96472748 -107.6007843 53.61503601 C-107.09901421 48.85690525 -105.69693461 45.46705859 -102.21850586 42.15356445 C-95.42852302 37.51330591 -88.40001734 34.32398927 -80.7890625 31.25390625 C-70.27071752 26.89611774 -60.18529845 22.09791679 -50.18994141 16.65527344 C-44.16624154 13.42556189 -38.08304653 10.30894132 -32.00692749 7.17929077 C-29.75567949 6.01891422 -27.50629912 4.85497727 -25.25708008 3.69067383 C-23.86158694 2.97067969 -22.4660018 2.25086382 -21.0703125 1.53125 C-20.42430588 1.19630524 -19.77829926 0.86136047 -19.11271667 0.51626587 C-11.80203619 -3.24195571 -7.5391056 -3.16113375 0 0 Z " fill="#010101" transform="translate(717.2265625,465.93359375)"/>
<path d="M0 0 C2.48892463 1.21798439 4.89573406 2.46705261 7.3125 3.8125 C8.64281938 4.5385118 9.9735454 5.26377901 11.3046875 5.98828125 C12.25746582 6.50962646 12.25746582 6.50962646 13.22949219 7.04150391 C16.44397629 8.78172241 19.71779734 10.39239053 23 12 C23 12.99 23 13.98 23 15 C22.30269775 15.20608887 21.60539551 15.41217773 20.88696289 15.62451172 C12.29908447 18.30800362 4.4199214 22.03646122 -3.5625 26.125 C-4.90192008 26.80390041 -6.2416044 27.48227975 -7.58154297 28.16015625 C-19.97419275 34.44329283 -32.25812419 40.91727438 -44.5 47.48828125 C-46.27151344 48.43909841 -48.04302738 49.38991461 -49.8145752 50.34066772 C-51.02066524 50.98809435 -52.22663875 51.63573811 -53.43249512 52.28359985 C-62.91292564 57.37588415 -72.44427744 62.36377267 -82.00439453 67.30493164 C-88.55303126 70.69961791 -95.04135479 74.1875053 -101.5 77.75 C-114.30025574 84.80222985 -127.32573554 91.41519958 -140.32846069 98.08331299 C-146.29434132 101.14533347 -152.23288017 104.25724512 -158.16040039 107.39282227 C-165.70000845 111.37880516 -173.26629053 115.31341913 -180.84521484 119.22412109 C-185.64420825 121.70569314 -190.41869751 124.20947025 -195.125 126.86328125 C-195.89376465 127.29116943 -196.6625293 127.71905762 -197.45458984 128.15991211 C-198.84919627 128.94067208 -200.23582438 129.73595533 -201.61181641 130.54907227 C-206.23230921 133.11823081 -208.90608041 133.07862398 -214 132 C-216.90820312 130.71582031 -216.90820312 130.71582031 -219.78125 129.078125 C-220.85842285 128.47154053 -221.9355957 127.86495605 -223.04541016 127.23999023 C-224.1854248 126.58329346 -225.32543945 125.92659668 -226.5 125.25 C-227.70693235 124.56545132 -228.91446134 123.88195362 -230.12255859 123.19946289 C-232.57965274 121.80907642 -235.03310552 120.41259105 -237.48339844 119.01025391 C-241.59282171 116.65863721 -245.7168849 114.33324225 -249.84130859 112.00805664 C-252.6411378 110.42839506 -255.43787944 108.84336677 -258.234375 107.2578125 C-263.35686494 104.3576571 -268.49536463 101.48680768 -273.63623047 98.61938477 C-282.30377721 93.78382669 -290.93382397 88.90639716 -299.46362305 83.83178711 C-307.91924932 78.82448208 -316.52486322 74.08151303 -325.10546875 69.29296875 C-329.91411841 66.609375 -334.71536817 63.91369457 -339.5 61.1875 C-341.09328125 60.28064453 -341.09328125 60.28064453 -342.71875 59.35546875 C-345 58 -345 58 -346 57 C-346.04063832 55.33382885 -346.042721 53.66611905 -346 52 C-343.5145796 51.08609131 -342.33126206 50.88231431 -339.79956055 51.78173828 C-339.00332275 52.20696777 -338.20708496 52.63219727 -337.38671875 53.0703125 C-336.48074951 53.54774902 -335.57478027 54.02518555 -334.64135742 54.51708984 C-333.179198 55.31300537 -333.179198 55.31300537 -331.6875 56.125 C-330.66567627 56.66979004 -329.64385254 57.21458008 -328.59106445 57.77587891 C-320.60833561 62.05821976 -312.71843976 66.50308527 -304.8515625 70.99389648 C-296.42391659 75.79654125 -287.8953542 80.3981351 -279.3449707 84.9777832 C-273.1609763 88.29210807 -266.99909659 91.63880354 -260.875 95.0625 C-253.65841211 99.08544311 -246.43254691 103.09100046 -239.1875 107.0625 C-238.15415527 107.63556885 -237.12081055 108.2086377 -236.05615234 108.79907227 C-235.08242676 109.33072998 -234.10870117 109.8623877 -233.10546875 110.41015625 C-232.24074951 110.88590088 -231.37603027 111.36164551 -230.48510742 111.85180664 C-227.81199744 113.08686276 -225.95033845 113.84405196 -223 114 C-220.5268108 113.04311021 -218.38039032 112.05321152 -216.06640625 110.80078125 C-215.4011644 110.45484421 -214.73592255 110.10890717 -214.05052185 109.75248718 C-211.88041534 108.61939179 -209.72163853 107.46633792 -207.5625 106.3125 C-206.05330053 105.51910441 -204.54353007 104.72679407 -203.03320312 103.93554688 C-194.12565718 99.2548724 -185.27538606 94.4691075 -176.46899414 89.60083008 C-168.23077009 85.06762337 -159.86892686 80.78504189 -151.5 76.5 C-141.2703675 71.26199412 -131.10471225 65.94274958 -121.04296875 60.38671875 C-112.77277847 55.835005 -104.38695531 51.51700666 -95.99511719 47.19482422 C-89.23304584 43.70296624 -82.53130309 40.1262993 -75.875 36.4375 C-63.4300958 29.55323797 -50.72779823 23.16278538 -38.04248047 16.73608398 C-36.3458355 15.87391514 -34.64938164 15.01137011 -32.953125 14.1484375 C-32.1256778 13.72903397 -31.29823059 13.30963043 -30.44570923 12.8775177 C-26.20562531 10.71030193 -22.02890196 8.47125347 -17.90429688 6.09082031 C-17.08709167 5.62141022 -16.26988647 5.15200012 -15.42791748 4.66836548 C-13.88054787 3.77199696 -12.34034634 2.86309703 -10.80889893 1.93978882 C-4.43946891 -1.75318165 -4.43946891 -1.75318165 0 0 Z " fill="#FAFAFA" transform="translate(722,350)"/>
<path d="M0 0 C6.875 1.875 6.875 1.875 8 3 C8.09697192 4.56384575 8.12371657 6.13208815 8.12304783 7.69893742 C8.12503888 8.72156337 8.12702993 9.74418932 8.12908131 10.79780394 C8.12471205 12.50350645 8.12471205 12.50350645 8.12025452 14.2436676 C8.12110894 15.44100287 8.12196337 16.63833814 8.12284368 17.87195629 C8.12421189 21.21037969 8.12106435 24.54874518 8.11606562 27.88716161 C8.11176448 31.48158799 8.1132073 35.07601245 8.1139679 38.67044067 C8.11449335 44.90300995 8.11134436 51.1355688 8.10573006 57.36813545 C8.09761789 66.37948339 8.09500013 75.39082625 8.09374207 84.40217745 C8.0915511 99.02096947 8.08488981 113.63975592 8.07543945 128.25854492 C8.06626649 142.46297172 8.05918509 156.66739701 8.05493164 170.87182617 C8.05466892 171.74675315 8.05440619 172.62168013 8.05413551 173.52312005 C8.05283051 177.91218229 8.05156679 182.30124453 8.05032361 186.69030678 C8.0399496 223.12687512 8.02233008 259.56343713 8 296 C4.79953427 297.02548688 4.1225389 297.04669224 0.7875824 295.77593994 C-2.30231564 292.698947 -2.4373149 292.17673489 -2.68809509 288.04876709 C-2.69009258 285.89397181 -2.65816393 283.73900719 -2.60131836 281.58496094 C-2.59405039 280.37731331 -2.58678242 279.16966568 -2.5792942 277.92542267 C-2.55892578 275.22967134 -2.52735011 272.53657592 -2.47778511 269.84143829 C-2.39582392 265.35664917 -2.35648935 260.87203258 -2.32249451 256.38665771 C-2.28183031 251.33042185 -2.23692424 246.27431269 -2.17825031 241.21825027 C-2.00906348 226.62273981 -1.93854475 212.0280387 -1.89892578 197.43164062 C-1.89232315 195.07594043 -1.88571285 192.72024025 -1.87909508 190.3645401 C-1.86900779 186.7559348 -1.858962 183.14732943 -1.8491143 179.53872347 C-1.81107418 165.93070524 -1.7527202 152.32278297 -1.69335938 138.71484375 C-1.67142288 133.66780618 -1.6495302 128.62076843 -1.62768555 123.57373047 C-1.61950808 121.68914619 -1.61950808 121.68914619 -1.6111654 119.76648951 C-1.56652085 109.39110363 -1.52684887 99.01570235 -1.48800808 88.64029336 C-1.44986314 78.52090787 -1.40795063 68.40154243 -1.36312145 58.28218436 C-1.33664644 52.28660171 -1.31178182 46.29102284 -1.29092598 40.29541779 C-1.27144926 34.72304874 -1.24733456 29.15071973 -1.21950912 23.57838631 C-1.21012041 21.53403247 -1.20245173 19.48966993 -1.19658089 17.44530296 C-1.18835853 14.67078696 -1.17409725 11.89636833 -1.15821838 9.12188721 C-1.15724028 8.30418484 -1.15626217 7.48648247 -1.15525442 6.64400125 C-1.1141359 1.1141359 -1.1141359 1.1141359 0 0 Z " fill="#F9F9F9" transform="translate(463,569)"/>
<path d="M0 0 C2.20556641 0.91455078 2.20556641 0.91455078 4 2 C3.66796875 4.6171875 3.66796875 4.6171875 2 8 C-1.32920818 10.47603398 -4.98925664 12.26211528 -8.6875 14.125 C-9.76531738 14.68775635 -10.84313477 15.2505127 -11.95361328 15.83032227 C-15.29387897 17.57062262 -18.64633994 19.28568643 -22 21 C-24.86564406 22.48919149 -27.72757576 23.98533324 -30.58935547 25.48193359 C-32.46086491 26.45984238 -34.33360761 27.43539428 -36.20751953 28.40869141 C-49.71290508 35.4263531 -63.11276023 42.65168336 -76.4453125 49.9921875 C-90.38466465 57.66258738 -104.49352897 64.97231962 -118.64460754 72.24137878 C-123.73761597 74.85972366 -128.81237893 77.51096176 -133.875 80.1875 C-142.17397687 84.57496357 -150.5008159 88.90768017 -158.8359375 93.22607422 C-163.6625651 95.72996214 -168.48017927 98.24626134 -173.265625 100.828125 C-174.05243652 101.25150146 -174.83924805 101.67487793 -175.64990234 102.11108398 C-177.09067646 102.88901348 -178.52870414 103.6720602 -179.96337891 104.46118164 C-184.66927517 107 -184.66927517 107 -188 107 C-188 104.36 -188 101.72 -188 99 C-186.95328125 98.45214844 -185.9065625 97.90429688 -184.828125 97.33984375 C-175.54002157 92.46894555 -166.2793879 87.54952137 -157.04013062 82.58654785 C-144.94082551 76.08754676 -132.79235641 69.68943866 -120.60498047 63.35693359 C-116.56288817 61.25140885 -112.53119138 59.12630076 -108.5 57 C-102.74730768 53.96646658 -96.98679962 50.94866556 -91.2175293 47.94677734 C-80.68484152 42.46537682 -70.17973769 36.93330386 -59.6875 31.375 C-58.97675323 30.99849304 -58.26600647 30.62198608 -57.53372192 30.23406982 C-50.782417 26.65722332 -44.03237803 23.07799025 -37.28271484 19.49804688 C-33.39252321 17.43476375 -29.50187809 15.37233778 -25.61099243 13.31036377 C-23.42866397 12.15344881 -21.24691412 10.99544807 -19.06518555 9.83740234 C-16.47526554 8.46278102 -13.88151395 7.09590452 -11.28417969 5.73535156 C-9.31340751 4.69400093 -7.35203661 3.63409989 -5.41113281 2.53808594 C-3.2890625 1.3671875 -3.2890625 1.3671875 0 0 Z " fill="#F7F7F7" transform="translate(710,268)"/>
<path d="M0 0 C-0.55155408 3.95280426 -1.17194273 7.4361655 -3 11 C-5.19775391 12.59887695 -5.19775391 12.59887695 -7.9765625 13.98828125 C-9.54724487 14.78806396 -9.54724487 14.78806396 -11.1496582 15.60400391 C-12.296521 16.16780762 -13.44338379 16.73161133 -14.625 17.3125 C-15.83038474 17.9196467 -17.03504185 18.52823988 -18.23901367 19.13818359 C-21.47673457 20.7730967 -24.72400896 22.38800436 -27.97467041 23.99700928 C-33.4103679 26.68889418 -38.83706431 29.39898368 -44.26568604 32.10510254 C-45.63550654 32.78766406 -47.00558519 33.46970773 -48.37591553 34.15124512 C-59.44892559 39.66064665 -70.33713915 45.44406998 -81.15771484 51.43554688 C-86.60477649 54.4337234 -92.08248617 57.37510173 -97.5625 60.3125 C-98.43584991 60.78068649 -98.43584991 60.78068649 -99.32684326 61.2583313 C-108.63861836 66.24493422 -117.9927165 71.14746629 -127.375 76 C-128.53201416 76.59852783 -129.68902832 77.19705566 -130.88110352 77.8137207 C-133.11771286 78.96671334 -135.35748591 80.11359241 -137.60058594 81.25390625 C-140.0014739 82.48711156 -142.37899691 83.74139509 -144.75097656 85.02734375 C-145.99275945 85.68504519 -147.2346193 86.34260134 -148.4765625 87 C-149.58338379 87.598125 -150.69020508 88.19625 -151.83056641 88.8125 C-155.45017925 90.16866984 -157.31562397 90.01692751 -161 89 C-161.66 88.67 -162.32 88.34 -163 88 C-163 86.68 -163 85.36 -163 84 C-162.2157666 83.59797363 -161.4315332 83.19594727 -160.62353516 82.78173828 C-141.45095052 72.96041718 -141.45095052 72.96041718 -122.54516602 62.63916016 C-113.72832249 57.68486558 -104.72658951 53.08198005 -95.74853516 48.42871094 C-91.73977751 46.34492609 -87.74482078 44.23534048 -83.75 42.125 C-76.18345595 38.134176 -68.59501942 34.18633409 -61 30.25 C-59.86361084 29.66081787 -58.72722168 29.07163574 -57.55639648 28.46459961 C-52.24708748 25.71334792 -46.93606487 22.96552954 -41.61927795 20.22875977 C-38.68272279 18.71687097 -35.74756497 17.20227927 -32.8125 15.6875 C-31.6877124 15.10758301 -30.5629248 14.52766602 -29.40405273 13.93017578 C-22.38648448 10.29320858 -15.44486211 6.55341202 -8.6652832 2.48706055 C-5.37782184 0.56002435 -3.94585745 0 0 0 Z " fill="#F9F9F9" transform="translate(630,156)"/>
<path d="M0 0 C2.58015238 1.08289051 4.93027047 2.17811075 7.375 3.5 C8.01566406 3.83386719 8.65632812 4.16773438 9.31640625 4.51171875 C10.88333671 5.33026451 12.44250241 6.16364513 14 7 C14 8.32 14 9.64 14 11 C12.19360352 12.51708984 12.19360352 12.51708984 9.62890625 13.9609375 C8.67419434 14.5079834 7.71948242 15.0550293 6.73583984 15.61865234 C5.6886377 16.19824707 4.64143555 16.7778418 3.5625 17.375 C2.4895166 17.98424316 1.4165332 18.59348633 0.31103516 19.22119141 C-3.11757362 21.16282476 -6.55785256 23.08248757 -10 25 C-12.22312896 26.24915909 -14.44579413 27.49914398 -16.66796875 28.75 C-20.8911812 31.12413195 -25.12088612 33.48606085 -29.35546875 35.83984375 C-32.79585034 37.75627478 -36.21795654 39.69624662 -39.61328125 41.69140625 C-40.27376465 42.07828613 -40.93424805 42.46516602 -41.61474609 42.86376953 C-43.28747533 43.8491249 -44.95457438 44.84402174 -46.62109375 45.83984375 C-47.40613281 46.22269531 -48.19117188 46.60554687 -49 47 C-49.66 46.67 -50.32 46.34 -51 46 C-51 38.74 -51 31.48 -51 24 C-44.74793885 20.56749584 -38.49333202 17.14309464 -32.22216797 13.74609375 C-30.07908683 12.58475746 -27.93747481 11.42070589 -25.79736328 10.25390625 C-22.70516017 8.57270844 -19.60400605 6.90928434 -16.5 5.25 C-15.5402124 4.7250293 -14.5804248 4.20005859 -13.59155273 3.65917969 C-4.88761654 -0.95301715 -4.88761654 -0.95301715 0 0 Z " fill="#FAFAFA" transform="translate(679,692)"/>
<path d="M0 0 C6.53273753 1.52545454 12.7471696 4.19827484 18.9609375 6.69140625 C18.79931641 8.49047852 18.79931641 8.49047852 17.9609375 10.69140625 C15.64208984 12.31616211 15.64208984 12.31616211 12.546875 13.90625 C11.40355713 14.50405273 10.26023926 15.10185547 9.08227539 15.71777344 C8.16552536 16.185401 8.16552536 16.185401 7.23025513 16.66247559 C4.02913643 18.29560153 0.85065644 19.97195364 -2.33203125 21.640625 C-3.30122246 22.14615402 -3.30122246 22.14615402 -4.28999329 22.66189575 C-10.59337158 25.95706212 -16.79496134 29.42341775 -22.9765625 32.94140625 C-24.39412842 33.7456604 -24.39412842 33.7456604 -25.84033203 34.56616211 C-30.93576405 37.46437255 -30.93576405 37.46437255 -35.91796875 40.55078125 C-38.0390625 41.69140625 -38.0390625 41.69140625 -42.0390625 41.69140625 C-43.72366839 38.32219448 -43.34999224 34.58042005 -43.4140625 30.87890625 C-43.45144531 30.07130859 -43.48882813 29.26371094 -43.52734375 28.43164062 C-43.53894531 27.64466797 -43.55054688 26.85769531 -43.5625 26.046875 C-43.58231934 25.33168701 -43.60213867 24.61649902 -43.62255859 23.87963867 C-42.4176914 19.36113462 -38.69269095 17.08431548 -34.85693359 14.77856445 C-33.10243896 13.89430786 -33.10243896 13.89430786 -31.3125 12.9921875 C-30.36825668 12.51050362 -30.36825668 12.51050362 -29.40493774 12.01908875 C-27.41247925 11.00484149 -25.41367877 10.00395577 -23.4140625 9.00390625 C-21.40878718 7.99043317 -19.40491848 6.97424651 -17.40176392 5.95658875 C-15.59103381 5.03835155 -13.77680541 4.12702251 -11.96240234 3.21606445 C-4.63081853 -0.60769878 -4.63081853 -0.60769878 0 0 Z " fill="#F8F8F8" transform="translate(670.0390625,526.30859375)"/>
<path d="M0 0 C0.33 0.66 0.66 1.32 1 2 C1.66 2 2.32 2 3 2 C3 98.03 3 194.06 3 293 C1.68 293.33 0.36 293.66 -1 294 C-0.67 196.98 -0.34 99.96 0 0 Z " fill="#DEDEDE" transform="translate(468,572)"/>
</svg>
